<svg width="69" height="69" viewBox="0 0 69 69" fill="none" xmlns="http://www.w3.org/2000/svg">
<rect width="69" height="69" rx="10" fill="#0B1B2B"/>
<g clip-path="url(#clip0_1818_44)">
<path d="M13.2626 20.7377C12.5792 20.0541 12.5791 18.9462 13.2623 18.2625C13.2624 18.2625 13.2625 18.2624 13.2625 18.2623C13.2626 18.2623 13.2626 18.2623 13.2626 18.2623C13.9462 17.5794 15.0542 17.5795 15.7379 18.2626L30.7352 33.2646L30.7353 33.2647C31.419 33.9483 31.419 35.0516 30.7353 35.7353L30.7353 35.7353L15.7376 50.7353C15.0539 51.4189 13.946 51.4189 13.2626 50.7353C12.5791 50.0516 12.5791 48.9483 13.2626 48.2646L13.2626 48.2646L26.4914 35.0302L27.0214 34.4999L26.4913 33.9697L13.2626 20.7377C13.2626 20.7377 13.2626 20.7377 13.2626 20.7377ZM54.5 47.75C55.4686 47.75 56.25 48.5314 56.25 49.5C56.25 50.4686 55.4686 51.25 54.5 51.25H32C31.0314 51.25 30.25 50.4686 30.25 49.5C30.25 48.5314 31.0314 47.75 32 47.75H54.5Z" stroke="#E7EDF4" stroke-width="1.5"/>
</g>
<defs>
<clipPath id="clip0_1818_44">
<rect width="45" height="40" fill="white" transform="translate(12 14.5)"/>
</clipPath>
</defs>
</svg>
